<svg width="100%" viewBox="0 0 490 650" xmlns="http://www.w3.org/2000/svg" preserveAspectRatio="xMidYMid slice">
  <title>HallSense login panel</title>
  <rect x="0" y="0" width="480" height="640" fill="#16203c"/>
  <g opacity="0.35" stroke="#2a3a63" stroke-width="1">
    <line x1="0" y1="107" x2="480" y2="107"/>
    <line x1="0" y1="214" x2="480" y2="214"/>
    <line x1="0" y1="321" x2="480" y2="321"/>
    <line x1="0" y1="428" x2="480" y2="428"/>
    <line x1="0" y1="535" x2="480" y2="535"/>
    <line x1="96" y1="0" x2="96" y2="640"/>
    <line x1="192" y1="0" x2="192" y2="640"/>
    <line x1="288" y1="0" x2="288" y2="640"/>
    <line x1="384" y1="0" x2="384" y2="640"/>
  </g>
  <g transform="translate(20,210)">
    <path d="M0 110 L46 70 L92 86 L138 36 L184 58 L230 14 L276 30 L322 -2 L368 16" fill="none" stroke="#2d8fb3" stroke-width="3" stroke-linecap="round" stroke-linejoin="round" opacity="0.4"/>
    <path d="M0 150 L46 132 L92 142 L138 110 L184 126 L230 92 L276 108 L322 80 L368 96" fill="none" stroke="#46c08a" stroke-width="2.5" stroke-linecap="round" stroke-linejoin="round" opacity="0.28"/>
  </g>
  <g transform="translate(54,44)">
    <circle cx="20" cy="20" r="6" fill="#2d8fb3"/>
    <circle cx="20" cy="20" r="14" fill="none" stroke="#2d8fb3" stroke-width="1.5" opacity="0.6"/>
    <circle cx="20" cy="20" r="23" fill="none" stroke="#2d8fb3" stroke-width="1.2" opacity="0.3"/>
  </g>
  <g transform="translate(286,52)">
    <rect x="0" y="0" width="120" height="66" rx="10" fill="#1e2a4a" stroke="#34457a" stroke-width="1.3"/>
    <text x="14" y="26" font-family="sans-serif" font-size="11" fill="#7e8db5">Active rooms</text>
    <text x="14" y="52" font-family="sans-serif" font-size="22" font-weight="500" fill="#eef2fb">42</text>
    <circle cx="102" cy="20" r="4" fill="#46c08a"/>
  </g>
  <g transform="translate(150,116)">
    <circle cx="14" cy="14" r="4" fill="#f0a830"/>
    <circle cx="14" cy="14" r="10" fill="none" stroke="#f0a830" stroke-width="1.3" opacity="0.5"/>
    <circle cx="14" cy="14" r="16" fill="none" stroke="#f0a830" stroke-width="1" opacity="0.25"/>
  </g>
  <g transform="translate(40,150)">
    <rect x="0" y="0" width="84" height="74" rx="11" fill="#1e2a4a" stroke="#34457a" stroke-width="1.3"/>
    <g transform="translate(42,30)">
      <circle cx="0" cy="0" r="13" fill="#f0a830"/>
      <line x1="0" y1="-22" x2="0" y2="-18" stroke="#f0a830" stroke-width="2" stroke-linecap="round"/>
      <line x1="0" y1="18" x2="0" y2="22" stroke="#f0a830" stroke-width="2" stroke-linecap="round"/>
      <line x1="-22" y1="0" x2="-18" y2="0" stroke="#f0a830" stroke-width="2" stroke-linecap="round"/>
      <line x1="18" y1="0" x2="22" y2="0" stroke="#f0a830" stroke-width="2" stroke-linecap="round"/>
    </g>
    <text x="42" y="64" font-family="sans-serif" font-size="10" fill="#7e8db5" text-anchor="middle">Lights on</text>
  </g>
  <g transform="translate(256,168)">
    <rect x="0" y="0" width="160" height="120" rx="12" fill="#1e2a4a" stroke="#34457a" stroke-width="1.3"/>
    <text x="16" y="26" font-family="sans-serif" font-size="11" fill="#7e8db5">Lighting load</text>
    <rect x="18" y="58" width="22" height="40" rx="3" fill="#2d8fb3"/>
    <rect x="52" y="44" width="22" height="54" rx="3" fill="#2d8fb3"/>
    <rect x="86" y="70" width="22" height="28" rx="3" fill="#46c08a"/>
    <rect x="120" y="52" width="22" height="46" rx="3" fill="#f0a830"/>
  </g>
  <g transform="translate(44,300)">
    <rect x="0" y="0" width="174" height="120" rx="12" fill="#1e2a4a" stroke="#34457a" stroke-width="1.3"/>
    <text x="16" y="26" font-family="sans-serif" font-size="11" fill="#7e8db5">Occupancy trend</text>
    <polyline points="16,92 46,74 76,82 106,52 136,62 158,34" fill="none" stroke="#2d8fb3" stroke-width="3" stroke-linecap="round" stroke-linejoin="round"/>
    <circle cx="158" cy="34" r="5" fill="#2d8fb3"/>
    <polyline points="16,100 46,94 76,98 106,84 136,90 158,72" fill="none" stroke="#46c08a" stroke-width="2.5" stroke-linecap="round" stroke-linejoin="round" opacity="0.75"/>
  </g>
  <g transform="translate(268,340)">
    <rect x="0" y="0" width="150" height="74" rx="11" fill="#1e2a4a" stroke="#34457a" stroke-width="1.3"/>
    <text x="16" y="24" font-family="sans-serif" font-size="11" fill="#7e8db5">Occupancy</text>
    <circle cx="22" cy="50" r="7" fill="#46c08a"/>
    <circle cx="44" cy="50" r="7" fill="#46c08a"/>
    <circle cx="66" cy="50" r="7" fill="#2d8fb3"/>
    <circle cx="88" cy="50" r="7" fill="#46c08a"/>
    <circle cx="110" cy="50" r="7" fill="#5b6c99"/>
    <circle cx="132" cy="50" r="7" fill="#46c08a"/>
  </g>
  <g transform="translate(40,560)">
    <circle cx="14" cy="14" r="13" fill="none" stroke="#2d8fb3" stroke-width="3"/>
    <circle cx="14" cy="14" r="6" fill="none" stroke="#2d8fb3" stroke-width="2.5"/>
    <circle cx="14" cy="14" r="1.5" fill="#2d8fb3"/>
    <text x="40" y="12" font-family="sans-serif" font-size="15" font-weight="500" fill="#eef2fb">HallSense</text>
    <text x="40" y="30" font-family="sans-serif" font-size="11" fill="#7e8db5">Real-time campus monitoring</text>
  </g>
</svg>
